# xmcd
#
# Track frame offsets:
#	150
#	18056
#	29946
#	45993
#	65334
#	81259
#	100584
#	118346
#	132052
#	146678
#	165935
#	183855
#	195839
#	211835
#	231253
#	247299
#	266909
#	284795
#	297831
#	312162
#
# Disc length: 4420 seconds
#
# Revision: 0
# Processed by: cddbd v1.5.1PL2 Copyright (c) Steve Scherf et al.
# Submitted via: audiograbber 1.83.01
#
DISCID=23114214
DTITLE=Pocket Songs - PScdg1043
DYEAR=1900
DGENRE=Karaoke Country
TTITLE0=Rogers, Kenny - Lady
TTITLE1=Rogers, Kenny - Rueben James
TTITLE2=Rogers, Kenny - Gambler
TTITLE3=Rogers, Kenny - She Believes In Me
TTITLE4=Rogers, Kenny - Lucille
TTITLE5=Rogers, Kenny - Coward Of The County
TTITLE6=Rogers, Kenny - You Decorated My Life
TTITLE7=Rogers, Kenny - Ruby Don't Take Your Love To Town
TTITLE8=Rogers, Kenny - Daytime Friends
TTITLE9=Rogers, Kenny - While The Feeling's Good
TTITLE10=Rogers, Kenny - Lady (Vocal)
TTITLE11=Rogers, Kenny - Rueben James (Vocal)
TTITLE12=Rogers, Kenny - Gambler (Vocal)
TTITLE13=Rogers, Kenny - She Believes In Me (Vocal)
TTITLE14=Rogers, Kenny - Lucille (Vocal)
TTITLE15=Rogers, Kenny - Coward Of The County (Vocal)
TTITLE16=Rogers, Kenny - You Decorated My Life (Vocal)
TTITLE17=Rogers, Kenny - Ruby Don't Take Your Love To Town (Vocal)
TTITLE18=Rogers, Kenny - Daytime Friends (Vocal)
TTITLE19=Rogers, Kenny - While The Feeling's Good (Vocal)
EXTD=
EXTT0=
EXTT1=
EXTT2=
EXTT3=
EXTT4=
EXTT5=
EXTT6=
EXTT7=
EXTT8=
EXTT9=
EXTT10=
EXTT11=
EXTT12=
EXTT13=
EXTT14=
EXTT15=
EXTT16=
EXTT17=
EXTT18=
EXTT19=
PLAYORDER=
